{
  "accessors": [
    {
      "bufferView": 0,
      "componentType": 5123,
      "count": 60000,
      "max": [
        11472
      ],
      "min": [
        0
      ],
      "type": "SCALAR"
    },
    {
      "bufferView": 1,
      "componentType": 5126,
      "count": 11473,
      "max": [
        0.044141765683889389,
        0.040473829954862595,
        0.026227422058582306
      ],
      "min": [
        -0.038537073880434036,
        -2.5044544145202963e-06,
        -0.025167977437376976
      ],
      "type": "VEC3"
    },
    {
      "bufferView": 2,
      "componentType": 5126,
      "count": 11473,
      "max": [
        0.99899142980575562,
        0.99901556968688965
      ],
      "min": [
        0.0010085796238854527,
        0.00098445953335613012
      ],
      "type": "VEC2"
    },
    {
      "bufferView": 3,
      "componentType": 5126,
      "count": 11473,
      "max": [
        0.99952715635299683,
        0.99999672174453735,
        0.99999630451202393
      ],
      "min": [
        -0.99998688697814941,
        -0.99999994039535522,
        -0.99963104724884033
      ],
      "type": "VEC3"
    },
    {
      "bufferView": 4,
      "componentType": 5126,
      "count": 11473,
      "max": [
        0.99999815225601196,
        0.99999421834945679,
        0.99992972612380981,
        1
      ],
      "min": [
        -0.99972796440124512,
        -0.99982023239135742,
        -0.99985939264297485,
        1
      ],
      "type": "VEC4"
    }
  ],
  "asset": {
    "generator": "Created by RapidCompact v5.5.0-dev | www.rapidcompact.com",
    "version": "2.0"
  },
  "bufferViews": [
    {
      "buffer": 0,
      "byteLength": 120000,
      "byteOffset": 0,
      "target": 34963
    },
    {
      "buffer": 0,
      "byteLength": 137676,
      "byteOffset": 120000,
      "byteStride": 12,
      "target": 34962
    },
    {
      "buffer": 0,
      "byteLength": 91784,
      "byteOffset": 257676,
      "byteStride": 8,
      "target": 34962
    },
    {
      "buffer": 0,
      "byteLength": 137676,
      "byteOffset": 349460,
      "byteStride": 12,
      "target": 34962
    },
    {
      "buffer": 0,
      "byteLength": 183568,
      "byteOffset": 487136,
      "byteStride": 16,
      "target": 34962
    }
  ],
  "buffers": [
    {
      "byteLength": 670704,
      "uri": "golden-teapot-draco_web.data.bin"
    }
  ],
  "images": [
    {
      "uri": "material0_normal.jpg"
    }
  ],
  "materials": [
    {
      "normalTexture": {
        "index": 0
      },
      "pbrMetallicRoughness": {
        "baseColorFactor": [
          0.90000000000000002,
          0.69999999999999996,
          0,
          1
        ],
        "roughnessFactor": 0.20000000000000001
      }
    }
  ],
  "meshes": [
    {
      "primitives": [
        {
          "attributes": {
            "NORMAL": 3,
            "POSITION": 1,
            "TANGENT": 4,
            "TEXCOORD_0": 2
          },
          "indices": 0,
          "material": 0,
          "mode": 4
        }
      ]
    }
  ],
  "nodes": [
    {
      "mesh": 0
    }
  ],
  "samplers": [
    {
      "wrapS": 33071,
      "wrapT": 33071
    }
  ],
  "scene": 0,
  "scenes": [
    {
      "nodes": [
        0
      ]
    }
  ],
  "textures": [
    {
      "sampler": 0,
      "source": 0
    }
  ]
}
