{
  "accessors": [
    {
      "bufferView": 0,
      "componentType": 5123,
      "count": 60000,
      "max": [
        11442
      ],
      "min": [
        0
      ],
      "type": "SCALAR"
    },
    {
      "bufferView": 1,
      "componentType": 5126,
      "count": 11443,
      "max": [
        0.044141765683889389,
        0.040473818778991699,
        0.026229273527860641
      ],
      "min": [
        -0.038537181913852692,
        0,
        -0.025168180465698242
      ],
      "type": "VEC3"
    },
    {
      "bufferView": 2,
      "componentType": 5126,
      "count": 11443,
      "max": [
        0.99898010492324829,
        0.99897807836532593
      ],
      "min": [
        0.0010198812233284116,
        0.0010219162795692682
      ],
      "type": "VEC2"
    },
    {
      "bufferView": 3,
      "componentType": 5126,
      "count": 11443,
      "max": [
        0.99976962804794312,
        0.99998855590820313,
        0.99999874830245972
      ],
      "min": [
        -0.99991947412490845,
        -0.99999958276748657,
        -0.99960440397262573
      ],
      "type": "VEC3"
    },
    {
      "bufferView": 4,
      "componentType": 5126,
      "count": 11443,
      "max": [
        0.99998241662979126,
        0.99997478723526001,
        0.99978846311569214,
        1
      ],
      "min": [
        -0.99961268901824951,
        -0.99998003244400024,
        -0.99780428409576416,
        1
      ],
      "type": "VEC4"
    }
  ],
  "asset": {
    "generator": "Created by RapidCompact v4.6.0 | www.rapidcompact.com",
    "version": "2.0"
  },
  "bufferViews": [
    {
      "buffer": 0,
      "byteLength": 120000,
      "byteOffset": 0,
      "target": 34963
    },
    {
      "buffer": 0,
      "byteLength": 137316,
      "byteOffset": 120000,
      "byteStride": 12,
      "target": 34962
    },
    {
      "buffer": 0,
      "byteLength": 91544,
      "byteOffset": 257316,
      "byteStride": 8,
      "target": 34962
    },
    {
      "buffer": 0,
      "byteLength": 137316,
      "byteOffset": 348860,
      "byteStride": 12,
      "target": 34962
    },
    {
      "buffer": 0,
      "byteLength": 183088,
      "byteOffset": 486176,
      "byteStride": 16,
      "target": 34962
    }
  ],
  "buffers": [
    {
      "byteLength": 669264,
      "uri": "golden-teapot-draco_web.data.bin"
    }
  ],
  "images": [
    {
      "uri": "material0_normal.jpg"
    }
  ],
  "materials": [
    {
      "normalTexture": {
        "index": 0
      },
      "pbrMetallicRoughness": {
        "baseColorFactor": [
          0.90000000000000002,
          0.69999999999999996,
          0,
          1
        ],
        "roughnessFactor": 0.20000000000000001
      }
    }
  ],
  "meshes": [
    {
      "primitives": [
        {
          "attributes": {
            "NORMAL": 3,
            "POSITION": 1,
            "TANGENT": 4,
            "TEXCOORD_0": 2
          },
          "indices": 0,
          "material": 0,
          "mode": 4
        }
      ]
    }
  ],
  "nodes": [
    {
      "mesh": 0
    }
  ],
  "samplers": [
    {
      "wrapS": 33071,
      "wrapT": 33071
    }
  ],
  "scene": 0,
  "scenes": [
    {
      "nodes": [
        0
      ]
    }
  ],
  "textures": [
    {
      "sampler": 0,
      "source": 0
    }
  ]
}
