{
  "accessors": [
    {
      "bufferView": 0,
      "componentType": 5123,
      "count": 60000,
      "max": [
        11559
      ],
      "min": [
        0
      ],
      "type": "SCALAR"
    },
    {
      "bufferView": 1,
      "componentType": 5126,
      "count": 11560,
      "max": [
        0.044140074402093887,
        0.040478404611349106,
        0.026228960603475571
      ],
      "min": [
        -0.038534779101610184,
        -7.9045111078812624e-07,
        -0.025169022381305695
      ],
      "type": "VEC3"
    },
    {
      "bufferView": 2,
      "componentType": 5126,
      "count": 11560,
      "max": [
        0.99902325868606567,
        0.99897980690002441
      ],
      "min": [
        0.00097676168661564589,
        0.0010201887926086783
      ],
      "type": "VEC2"
    },
    {
      "bufferView": 3,
      "componentType": 5126,
      "count": 11560,
      "max": [
        0.99991524219512939,
        0.99999034404754639,
        0.99999868869781494
      ],
      "min": [
        -0.99989813566207886,
        -0.99999457597732544,
        -0.9999585747718811
      ],
      "type": "VEC3"
    },
    {
      "bufferView": 4,
      "componentType": 5126,
      "count": 11560,
      "max": [
        0.99996435642242432,
        0.99987930059432983,
        0.99996650218963623,
        1
      ],
      "min": [
        -0.99999463558197021,
        -0.9997069239616394,
        -0.99997615814208984,
        -1
      ],
      "type": "VEC4"
    }
  ],
  "asset": {
    "generator": "Created by RapidCompact v5.5.0-dev | www.rapidcompact.com",
    "version": "2.0"
  },
  "bufferViews": [
    {
      "buffer": 0,
      "byteLength": 120000,
      "byteOffset": 0,
      "target": 34963
    },
    {
      "buffer": 0,
      "byteLength": 138720,
      "byteOffset": 120000,
      "byteStride": 12,
      "target": 34962
    },
    {
      "buffer": 0,
      "byteLength": 92480,
      "byteOffset": 258720,
      "byteStride": 8,
      "target": 34962
    },
    {
      "buffer": 0,
      "byteLength": 138720,
      "byteOffset": 351200,
      "byteStride": 12,
      "target": 34962
    },
    {
      "buffer": 0,
      "byteLength": 184960,
      "byteOffset": 489920,
      "byteStride": 16,
      "target": 34962
    }
  ],
  "buffers": [
    {
      "byteLength": 674880,
      "uri": "teapot_web.data.bin"
    }
  ],
  "images": [
    {
      "uri": "material0_normal.jpg"
    }
  ],
  "materials": [
    {
      "normalTexture": {
        "index": 0
      },
      "pbrMetallicRoughness": {
        "baseColorFactor": [
          1,
          1,
          1,
          1
        ],
        "metallicFactor": 0,
        "roughnessFactor": 0.5
      }
    }
  ],
  "meshes": [
    {
      "primitives": [
        {
          "attributes": {
            "NORMAL": 3,
            "POSITION": 1,
            "TANGENT": 4,
            "TEXCOORD_0": 2
          },
          "indices": 0,
          "material": 0,
          "mode": 4
        }
      ]
    }
  ],
  "nodes": [
    {
      "mesh": 0
    }
  ],
  "samplers": [
    {
      "wrapS": 33071,
      "wrapT": 33071
    }
  ],
  "scene": 0,
  "scenes": [
    {
      "nodes": [
        0
      ]
    }
  ],
  "textures": [
    {
      "sampler": 0,
      "source": 0
    }
  ]
}
