{
  "accessors": [
    {
      "bufferView": 0,
      "componentType": 5123,
      "count": 60000,
      "max": [
        11673
      ],
      "min": [
        0
      ],
      "type": "SCALAR"
    },
    {
      "bufferView": 1,
      "componentType": 5126,
      "count": 11674,
      "max": [
        0.044140074402093887,
        0.040480338037014008,
        0.026226617395877838
      ],
      "min": [
        -0.038534779101610184,
        -8.1763835169113008e-07,
        -0.025166679173707962
      ],
      "type": "VEC3"
    },
    {
      "bufferView": 2,
      "componentType": 5126,
      "count": 11674,
      "max": [
        0.99899435043334961,
        0.99904310703277588
      ],
      "min": [
        0.0010056761093437672,
        0.00095686473650857806
      ],
      "type": "VEC2"
    },
    {
      "bufferView": 3,
      "componentType": 5126,
      "count": 11674,
      "max": [
        0.99988692998886108,
        0.99999737739562988,
        0.99999719858169556
      ],
      "min": [
        -0.99989813566207886,
        -0.99999701976776123,
        -0.99999886751174927
      ],
      "type": "VEC3"
    },
    {
      "bufferView": 4,
      "componentType": 5126,
      "count": 11674,
      "max": [
        0.99964684247970581,
        0.99999779462814331,
        0.99981749057769775,
        1
      ],
      "min": [
        -0.99999594688415527,
        -0.99995261430740356,
        -0.99967402219772339,
        -1
      ],
      "type": "VEC4"
    }
  ],
  "asset": {
    "generator": "Created by RapidCompact v4.6.0 | www.rapidcompact.com",
    "version": "2.0"
  },
  "bufferViews": [
    {
      "buffer": 0,
      "byteLength": 120000,
      "byteOffset": 0,
      "target": 34963
    },
    {
      "buffer": 0,
      "byteLength": 140088,
      "byteOffset": 120000,
      "byteStride": 12,
      "target": 34962
    },
    {
      "buffer": 0,
      "byteLength": 93392,
      "byteOffset": 260088,
      "byteStride": 8,
      "target": 34962
    },
    {
      "buffer": 0,
      "byteLength": 140088,
      "byteOffset": 353480,
      "byteStride": 12,
      "target": 34962
    },
    {
      "buffer": 0,
      "byteLength": 186784,
      "byteOffset": 493568,
      "byteStride": 16,
      "target": 34962
    }
  ],
  "buffers": [
    {
      "byteLength": 680352,
      "uri": "teapot_web.data.bin"
    }
  ],
  "images": [
    {
      "uri": "material0_normal.jpg"
    }
  ],
  "materials": [
    {
      "normalTexture": {
        "index": 0
      },
      "pbrMetallicRoughness": {
        "baseColorFactor": [
          1,
          1,
          1,
          1
        ],
        "metallicFactor": 0,
        "roughnessFactor": 0.5
      }
    }
  ],
  "meshes": [
    {
      "primitives": [
        {
          "attributes": {
            "NORMAL": 3,
            "POSITION": 1,
            "TANGENT": 4,
            "TEXCOORD_0": 2
          },
          "indices": 0,
          "material": 0,
          "mode": 4
        }
      ]
    }
  ],
  "nodes": [
    {
      "mesh": 0
    }
  ],
  "samplers": [
    {
      "wrapS": 33071,
      "wrapT": 33071
    }
  ],
  "scene": 0,
  "scenes": [
    {
      "nodes": [
        0
      ]
    }
  ],
  "textures": [
    {
      "sampler": 0,
      "source": 0
    }
  ]
}
